<svg width="665" height="664" xmlns="http://www.w3.org/2000/svg" xmlns:xlink="http://www.w3.org/1999/xlink" xml:space="preserve" overflow="hidden"><defs><clipPath id="clip0"><rect x="829" y="495" width="665" height="664"/></clipPath><clipPath id="clip1"><rect x="829" y="495" width="665" height="664"/></clipPath></defs><g clip-path="url(#clip0)" transform="translate(-829 -495)"><g clip-path="url(#clip1)"><rect x="832" y="499" width="660" height="660" fill="#01DCC4" fill-opacity="1"/><path d="M1324.47 790.982 1324.47 865.305 1359.12 828.144ZM1334.91 754C1375.83 754 1409 787.195 1409 828.144 1409 869.092 1375.83 902.287 1334.91 902.287 1299.11 902.287 1269.24 876.872 1262.33 843.086L1261.97 839.532 1261.97 902.477 1262.21 902.822 1261.97 902.822 1188.06 902.822 1187.71 902.822 1187.71 902.302 1162.93 865.301 1162.93 902.941 1088.66 902.941 1088.66 754.621 1038.96 829.07 1088.49 903 1014.82 903 1002.19 884.156 989.733 902.822 989.265 902.822 915 902.822 915 754.356 989.265 754.356 989.265 791.568 1013.99 754.534 1088.66 754.534 1088.66 754.475 1088.69 754.475 1088.49 754.178 1162.63 754.178 1162.83 754.475 1162.93 754.475 1162.93 754.611 1187.71 791.612 1187.71 754.356 1261.97 754.356 1261.97 816.754 1262.33 813.201C1269.24 779.415 1299.11 754 1334.91 754Z" fill="#000000" fill-rule="evenodd" fill-opacity="1"/></g></g></svg>